<?xml version="1.0" encoding="UTF-8"?>
<!DOCTYPE svg PUBLIC "-//W3C//DTD SVG 1.1//EN" "http://www.w3.org/Graphics/SVG/1.1/DTD/svg11.dtd">
<svg xmlns="http://www.w3.org/2000/svg" version="1.1" width="512px" height="512px" style="shape-rendering:geometricPrecision; text-rendering:geometricPrecision; image-rendering:optimizeQuality; fill-rule:evenodd; clip-rule:evenodd" xmlns:xlink="http://www.w3.org/1999/xlink">
<g><path style="opacity:0.97" fill="#000000" d="M 36.5,-0.5 C 114.5,-0.5 192.5,-0.5 270.5,-0.5C 302.799,32.2987 335.299,64.9654 368,97.5C 368.5,155.499 368.667,213.499 368.5,271.5C 415.08,278.252 447.58,303.252 466,346.5C 484.251,402.009 471.417,448.843 427.5,487C 409.85,500.157 390.184,508.324 368.5,511.5C 358.167,511.5 347.833,511.5 337.5,511.5C 298.897,505.068 269.23,485.235 248.5,452C 177.834,451.5 107.167,451.333 36.5,451.5C 36.5,300.833 36.5,150.167 36.5,-0.5 Z M 67.5,29.5 C 127.5,29.5 187.5,29.5 247.5,29.5C 247.5,59.8333 247.5,90.1667 247.5,120.5C 277.5,120.5 307.5,120.5 337.5,120.5C 337.5,170.833 337.5,221.167 337.5,271.5C 290.757,279.071 258.257,304.738 240,348.5C 231.895,372.078 230.395,396.078 235.5,420.5C 179.5,420.5 123.5,420.5 67.5,420.5C 67.5,290.167 67.5,159.833 67.5,29.5 Z M 278.5,52.5 C 290.965,64.4647 303.298,76.6313 315.5,89C 303.171,89.4999 290.838,89.6665 278.5,89.5C 278.5,77.1667 278.5,64.8333 278.5,52.5 Z M 341.5,301.5 C 384.949,298.965 416.449,316.965 436,355.5C 450.969,397.912 441.469,433.746 407.5,463C 369.553,487.841 332.219,486.841 295.5,460C 265.122,431.32 256.622,397.153 270,357.5C 284.077,326.244 307.91,307.577 341.5,301.5 Z"/></g>
<g><path style="opacity:0.943" fill="#000000" d="M 167.5,67.5 C 175.078,73.5722 182.244,80.2389 189,87.5C 189.667,88.5 189.667,89.5 189,90.5C 171.5,108 154,125.5 136.5,143C 135.5,143.667 134.5,143.667 133.5,143C 121,130.5 108.5,118 96,105.5C 95.3333,104.5 95.3333,103.5 96,102.5C 102.709,95.4557 109.709,88.789 117,82.5C 123.305,87.9697 129.472,93.6363 135.5,99.5C 146.521,89.1457 157.188,78.479 167.5,67.5 Z"/></g>
<g><path style="opacity:0.962" fill="#000000" d="M 96.5,179.5 C 167.167,179.5 237.833,179.5 308.5,179.5C 308.5,189.833 308.5,200.167 308.5,210.5C 237.833,210.5 167.167,210.5 96.5,210.5C 96.5,200.167 96.5,189.833 96.5,179.5 Z"/></g>
<g><path style="opacity:0.962" fill="#000000" d="M 96.5,240.5 C 167.167,240.5 237.833,240.5 308.5,240.5C 308.5,250.833 308.5,261.167 308.5,271.5C 238.166,271.667 167.833,271.5 97.5,271C 96.5139,260.916 96.1806,250.749 96.5,240.5 Z"/></g>
<g><path style="opacity:0.956" fill="#000000" d="M 96.5,300.5 C 142.833,300.5 189.167,300.5 235.5,300.5C 235.5,310.833 235.5,321.167 235.5,331.5C 189.167,331.5 142.833,331.5 96.5,331.5C 96.5,321.167 96.5,310.833 96.5,300.5 Z"/></g>
<g><path style="opacity:0.965" fill="#000000" d="M 337.5,333.5 C 347.833,333.5 358.167,333.5 368.5,333.5C 368.5,347.5 368.5,361.5 368.5,375.5C 382.833,375.5 397.167,375.5 411.5,375.5C 411.5,385.833 411.5,396.167 411.5,406.5C 397.167,406.5 382.833,406.5 368.5,406.5C 368.5,420.5 368.5,434.5 368.5,448.5C 358.167,448.5 347.833,448.5 337.5,448.5C 337.5,434.5 337.5,420.5 337.5,406.5C 323.5,406.5 309.5,406.5 295.5,406.5C 295.5,396.167 295.5,385.833 295.5,375.5C 309.5,375.5 323.5,375.5 337.5,375.5C 337.5,361.5 337.5,347.5 337.5,333.5 Z"/></g>
<g><path style="opacity:0.949" fill="#000000" d="M 96.5,360.5 C 127.167,360.5 157.833,360.5 188.5,360.5C 188.5,370.833 188.5,381.167 188.5,391.5C 157.833,391.5 127.167,391.5 96.5,391.5C 96.5,381.167 96.5,370.833 96.5,360.5 Z"/></g>
</svg>
