<?xml version="1.0" encoding="UTF-8"?>
<!DOCTYPE svg PUBLIC "-//W3C//DTD SVG 1.1//EN" "http://www.w3.org/Graphics/SVG/1.1/DTD/svg11.dtd">
<svg xmlns="http://www.w3.org/2000/svg" version="1.1" width="512px" height="512px" style="shape-rendering:geometricPrecision; text-rendering:geometricPrecision; image-rendering:optimizeQuality; fill-rule:evenodd; clip-rule:evenodd" xmlns:xlink="http://www.w3.org/1999/xlink">
<g><path style="opacity:0.967" fill="#000000" d="M 60.5,14.5 C 127.501,14.3333 194.501,14.5 261.5,15C 298.96,46.1247 336.127,77.6247 373,109.5C 374,111.5 375,113.5 376,115.5C 376.333,137.167 376.667,158.833 377,180.5C 432.874,191.04 467.207,224.04 480,279.5C 486.807,333.476 467.64,375.31 422.5,405C 408.199,413.267 392.865,418.434 376.5,420.5C 377.073,432.618 376.24,444.618 374,456.5C 366.431,477.73 351.598,490.896 329.5,496C 240.167,496.667 150.833,496.667 61.5,496C 36.4413,490.608 20.9413,475.441 15,450.5C 14.3333,320.5 14.3333,190.5 15,60.5C 21.0147,35.9859 36.1813,20.6525 60.5,14.5 Z M 65.5,45.5 C 123.5,45.5 181.5,45.5 239.5,45.5C 239.333,70.8355 239.5,96.1689 240,121.5C 240.977,128.474 244.81,132.974 251.5,135C 282.832,135.5 314.165,135.667 345.5,135.5C 345.667,150.504 345.5,165.504 345,180.5C 299.435,188.735 267.435,214.068 249,256.5C 232.779,303.518 240.779,345.851 273,383.5C 292.82,404.161 316.987,416.494 345.5,420.5C 345.666,428.174 345.5,435.841 345,443.5C 342.711,454.457 336.211,461.624 325.5,465C 238.833,465.667 152.167,465.667 65.5,465C 55,462.5 48.5,456 46,445.5C 45.3333,318.833 45.3333,192.167 46,65.5C 48.6821,54.9858 55.1821,48.3191 65.5,45.5 Z M 271.5,64.5 C 287.136,77.6587 302.802,90.8254 318.5,104C 302.837,104.5 287.17,104.667 271.5,104.5C 271.5,91.1667 271.5,77.8333 271.5,64.5 Z M 355.5,210.5 C 396.61,211.123 426.11,229.79 444,266.5C 459.003,312.153 447.17,348.986 408.5,377C 365.04,399.602 326.207,393.435 292,358.5C 268.845,327.758 265.178,294.758 281,259.5C 297.494,230.509 322.328,214.175 355.5,210.5 Z"/></g>
<g><path style="opacity:0.964" fill="#000000" d="M 101.5,164.5 C 154.168,164.333 206.834,164.5 259.5,165C 270.28,169.729 273.447,177.563 269,188.5C 266.736,191.433 263.902,193.6 260.5,195C 206.833,195.667 153.167,195.667 99.5,195C 91.1893,191.093 88.0227,184.593 90,175.5C 92.1104,169.89 95.9437,166.224 101.5,164.5 Z"/></g>
<g><path style="opacity:0.963" fill="#000000" d="M 102.5,224.5 C 134.168,224.333 165.835,224.5 197.5,225C 210.109,229.14 213.609,237.307 208,249.5C 206.039,252.135 203.539,253.969 200.5,255C 166.833,255.667 133.167,255.667 99.5,255C 89.2773,249.705 86.7773,241.872 92,231.5C 94.7008,227.748 98.2008,225.415 102.5,224.5 Z"/></g>
<g><path style="opacity:0.965" fill="#000000" d="M 359.5,239.5 C 366.282,239.805 371.448,242.805 375,248.5C 376.439,260.758 376.939,273.091 376.5,285.5C 388.171,285.333 399.838,285.5 411.5,286C 421.723,291.295 424.223,299.128 419,309.5C 417.127,311.709 414.96,313.542 412.5,315C 400.562,316.415 388.562,316.915 376.5,316.5C 376.938,328.576 376.438,340.576 375,352.5C 368.064,362.54 359.564,364.04 349.5,357C 348.206,354.913 347.039,352.746 346,350.5C 345.5,339.172 345.333,327.838 345.5,316.5C 333.424,316.938 321.424,316.438 309.5,315C 300.227,309.31 298.06,301.477 303,291.5C 304.938,288.894 307.438,287.061 310.5,286C 322.162,285.5 333.829,285.333 345.5,285.5C 345.333,273.829 345.5,262.162 346,250.5C 348.651,244.33 353.151,240.663 359.5,239.5 Z"/></g>
<g><path style="opacity:0.963" fill="#000000" d="M 99.5,285.5 C 133.168,285.333 166.835,285.5 200.5,286C 208.871,289.909 212.037,296.409 210,305.5C 208.217,311.157 204.384,314.657 198.5,316C 166.5,316.667 134.5,316.667 102.5,316C 90.1127,311.72 86.6127,303.553 92,291.5C 94.1141,288.879 96.6141,286.879 99.5,285.5 Z"/></g>
<g><path style="opacity:0.96" fill="#000000" d="M 100.5,345.5 C 133.835,345.333 167.168,345.5 200.5,346C 209.177,350.19 212.343,357.024 210,366.5C 208.073,371.428 204.573,374.594 199.5,376C 166.5,376.667 133.5,376.667 100.5,376C 89.5488,370.818 86.7155,362.651 92,351.5C 94.3218,348.605 97.1552,346.605 100.5,345.5 Z"/></g>
</svg>
