<?xml version="1.0" encoding="UTF-8"?>
<svg version="1.1" xmlns="http://www.w3.org/2000/svg" width="436" height="428">
<path d="M0 0 C1.59368235 -0.00461449 3.18736044 -0.01097107 4.7810297 -0.01890898 C9.1402545 -0.03555029 13.49912736 -0.02737972 17.85835314 -0.0149641 C22.56736624 -0.00589458 27.27631985 -0.01989277 31.98532104 -0.03088379 C41.20231921 -0.04865329 50.41918694 -0.04483601 59.63619018 -0.03323323 C67.12824939 -0.02419301 74.6202721 -0.02297745 82.11233521 -0.02732849 C83.17938252 -0.02794142 84.24642983 -0.02855436 85.3458119 -0.02918586 C87.51362126 -0.03046479 89.68143061 -0.03176164 91.84923995 -0.03307623 C112.16811849 -0.04447743 132.4869248 -0.03137552 152.8057915 -0.00987476 C170.23343818 0.00799579 187.66097829 0.00489155 205.08862305 -0.0135498 C225.3356969 -0.03496461 245.58270747 -0.04337884 265.82979107 -0.03110075 C267.98954454 -0.02982658 270.14929802 -0.02856909 272.30905151 -0.02732849 C273.37164108 -0.02671139 274.43423064 -0.02609429 275.52901989 -0.02545848 C283.0105018 -0.02200742 290.49194351 -0.02782868 297.97341919 -0.0372467 C307.09311426 -0.04847483 316.21267164 -0.04540947 325.33235097 -0.02412373 C329.98374842 -0.01362432 334.63491645 -0.00947259 339.2863121 -0.02272034 C343.54750389 -0.03467303 347.80825442 -0.02803449 352.06940639 -0.00681013 C353.60762882 -0.00235623 355.14588882 -0.00458302 356.68408692 -0.01431328 C368.14557597 -0.08123235 377.73523442 1.19173277 386.38647461 9.31652832 C394.2995231 18.82235317 395.36096109 28.74594809 395.35113525 40.58877563 C395.35559194 42.26823062 395.35559194 42.26823062 395.36013865 43.98161399 C395.3688139 47.73534952 395.37033292 51.4890531 395.37182617 55.24279785 C395.37645519 57.93353932 395.38145956 60.62427792 395.38687134 63.3150177 C395.40043363 70.62721674 395.40647619 77.93941029 395.410882 85.25161982 C395.41364817 89.82107693 395.41788622 94.39053195 395.42238617 98.95998764 C395.43457644 111.6218636 395.444876 124.28373788 395.44826126 136.94561958 C395.44848083 137.75548321 395.44870039 138.56534683 395.44892661 139.39975177 C395.44914489 140.21150836 395.44936317 141.02326494 395.44958806 141.85962021 C395.45003152 143.50443594 395.45047808 145.14925166 395.45092773 146.79406738 C395.45114916 147.60994571 395.45137059 148.42582404 395.45159873 149.26642595 C395.45554454 162.47877657 395.472993 175.69107197 395.49628726 188.90340127 C395.52003297 202.48188037 395.53246459 216.06033179 395.53362918 229.63883197 C395.53454417 237.25714749 395.54025191 244.87539105 395.55844879 252.49368668 C395.57389336 258.98238082 395.57894469 265.47098077 395.57071069 271.95968981 C395.56681942 275.26653445 395.56931031 278.57315115 395.58176804 281.87998009 C395.59451459 285.47521189 395.58859548 289.06996268 395.57818604 292.66519165 C395.59027064 294.2116376 395.59027064 294.2116376 395.60259938 295.78932488 C395.52974466 306.6031025 393.84901925 316.47645955 386.21069336 324.50793457 C377.25788655 333.26179012 368.40934473 334.09112048 356.32763672 333.96203613 C354.8386437 333.96090607 353.34964846 333.96154461 351.86065674 333.96380615 C347.84252451 333.96494805 343.82487547 333.94152452 339.80685496 333.91351032 C335.59884678 333.8884086 331.39082602 333.88614778 327.18275452 333.88140869 C319.22498022 333.86900457 311.26742724 333.83621792 303.30975014 333.79601073 C294.24565814 333.75121293 285.18155527 333.7292859 276.11738002 333.70922899 C257.48169261 333.66748283 238.84621081 333.59718097 220.21069336 333.50793457 C221.11930866 336.66864976 222.04268188 339.82487745 222.96850586 342.98059082 C223.22220947 343.86380005 223.47591309 344.74700928 223.73730469 345.65698242 C226.24788363 354.16592586 229.84377832 361.80902617 234.21069336 369.50793457 C234.54359375 370.096875 234.87649414 370.68581543 235.21948242 371.29260254 C239.58639289 378.91015067 244.51964128 385.83296778 250.21069336 392.50793457 C250.83588867 393.26719238 251.46108398 394.0264502 252.10522461 394.80871582 C256.53266564 400.0296697 261.38250204 404.27566795 266.79272461 408.46496582 C269.72554212 410.94293602 271.83637834 412.88590282 272.71459961 416.69152832 C272.74360352 417.80721191 272.74360352 417.80721191 272.77319336 418.94543457 C272.83700195 420.05725098 272.83700195 420.05725098 272.90209961 421.19152832 C271.83958851 424.75124063 269.288375 426.64201049 266.21069336 428.50793457 C262.70368767 429.12876034 262.70368767 429.12876034 258.7585144 429.12266541 C258.0293378 429.12834866 257.30016119 429.13403192 256.54888833 429.13988739 C254.11639483 429.15276078 251.68557534 429.13002909 249.25317383 429.1072998 C247.50510307 429.10916443 245.75703347 429.1132023 244.00897217 429.11924744 C239.26931215 429.12921712 234.53025071 429.10806118 229.79067755 429.08076739 C224.83044437 429.05692873 219.87022288 429.05988228 214.90994263 429.0594635 C206.58251822 429.05483664 198.25532258 429.03120076 189.92797852 428.99499512 C180.2973895 428.95323496 170.66700637 428.93567859 161.03633201 428.93237537 C150.78461394 428.92877726 140.53297004 428.90990662 130.2812829 428.8852551 C127.32588706 428.87902412 124.37049685 428.87538932 121.41509628 428.87222099 C116.77426811 428.86632431 112.13358733 428.85002206 107.49282074 428.82561684 C105.78842177 428.81817103 104.08400425 428.81410453 102.37958908 428.81363678 C100.05587531 428.8123807 97.73255124 428.79884852 95.40890503 428.78208923 C93.45717534 428.77511347 93.45717534 428.77511347 91.46601677 428.76799679 C88.3882697 428.52212084 86.71391432 428.25688236 84.21069336 426.50793457 C81.50743269 422.45304357 81.45421424 419.26881948 82.21069336 414.50793457 C84.87548818 410.09723969 88.46012478 407.46736687 92.46069336 404.25793457 C112.7185906 387.96471963 127.03648533 362.44375786 133.25611877 337.35803223 C133.57112839 336.0875 133.886138 334.81696777 134.21069336 333.50793457 C133.44077592 333.51162174 132.67085848 333.51530891 131.87761021 333.51910782 C113.1228267 333.60753858 94.36808493 333.67368294 75.61313725 333.71518326 C66.54328475 333.7357872 57.47357162 333.76386624 48.40380859 333.80969238 C40.4963601 333.84962666 32.58901258 333.87538314 24.68146604 333.88428855 C20.49646625 333.88949217 16.31175524 333.90167704 12.12684822 333.9308548 C8.18288539 333.95812828 4.23932864 333.96635568 0.29528046 333.9603653 C-1.14742558 333.96146023 -2.59014605 333.96934307 -4.03277016 333.98475647 C-15.68200829 334.10305107 -23.51198273 332.34358211 -32.07055664 324.27746582 C-40.40869372 315.69297469 -41.24565996 304.14500749 -41.16352844 292.68537903 C-41.16750285 291.55849912 -41.17147725 290.43161922 -41.1755721 289.27059144 C-41.18512774 285.52836627 -41.1734177 281.78652555 -41.16162109 278.04431152 C-41.16405124 275.34780879 -41.16765695 272.65133075 -41.17268372 269.95483398 C-41.18213227 263.41216625 -41.17560714 256.86960944 -41.16342077 250.32694999 C-41.14974619 242.6990436 -41.15144336 235.07116312 -41.1535541 227.44324758 C-41.15673807 213.83026575 -41.14510918 200.21733639 -41.12548828 186.60437012 C-41.10647543 173.40969242 -41.09940442 160.21507616 -41.10498047 147.02038574 C-41.11104367 132.63049732 -41.11085213 118.24063586 -41.09949464 103.85074967 C-41.09828741 102.31537291 -41.09708143 100.77999614 -41.09587669 99.24461937 C-41.09527316 98.48929531 -41.09466962 97.73397125 -41.09404779 96.95575858 C-41.09017577 91.64436951 -41.09055944 86.33299051 -41.09246254 81.02160072 C-41.09458859 74.54724289 -41.08932912 68.07293875 -41.07484899 61.59859601 C-41.06762575 58.29821004 -41.06458671 54.99791758 -41.06809235 51.69752312 C-41.07132035 48.1147757 -41.06221645 44.53226252 -41.05000305 40.94953918 C-41.05378238 39.91392941 -41.0575617 38.87831964 -41.06145555 37.81132776 C-40.99319636 26.47668889 -38.82102294 17.39500428 -31.19165039 8.68371582 C-22.25438313 0.29578414 -11.62812711 -0.07355665 0 0 Z M-17.78930664 24.50793457 C-19.65133112 27.23709367 -20.03893164 29.35518969 -20.0354023 32.62335587 C-20.03938439 33.43946783 -20.04336649 34.2555798 -20.04746926 35.09642243 C-20.04164358 35.98747107 -20.03581789 36.87851971 -20.02981567 37.79656982 C-20.03152452 38.74737167 -20.03323337 39.69817352 -20.03499401 40.67778754 C-20.03829469 43.87157148 -20.02727559 47.06514647 -20.01635742 50.25891113 C-20.01579343 52.54518631 -20.01610963 54.83146185 -20.01724243 57.11773682 C-20.01781743 63.33220938 -20.00603933 69.54660509 -19.99209452 75.76105976 C-19.97961163 82.25266953 -19.97841859 88.74428096 -19.9760437 95.23590088 C-19.97052914 106.13420994 -19.95802756 117.03249055 -19.94018555 127.93078613 C-19.92182736 139.15604511 -19.90767055 150.38129642 -19.89916992 161.60656738 C-19.89864447 162.29849946 -19.89811903 162.99043154 -19.89757766 163.70333126 C-19.89496758 167.17455321 -19.89244017 170.64577521 -19.88995385 174.11699724 C-19.86922062 202.91399504 -19.83384577 231.71096413 -19.78930664 260.50793457 C-14.17930664 260.50793457 -8.56930664 260.50793457 -2.78930664 260.50793457 C-2.75063477 256.40291504 -2.75063477 256.40291504 -2.71118164 252.21496582 C-2.67260572 249.52061324 -2.62749612 246.82644209 -2.58178711 244.13220215 C-2.5538198 242.28105551 -2.53248668 240.42979483 -2.51831055 238.57849121 C-2.37161636 220.49109753 0.35102953 204.14551796 13.24584961 190.34777832 C21.90427396 182.24018812 32.08326432 178.14574791 43.21069336 174.50793457 C42.75178711 173.82730957 42.29288086 173.14668457 41.82006836 172.44543457 C33.48839977 159.28279848 30.08787843 144.97119844 33.34448242 129.55310059 C36.42302658 116.34382042 43.3536377 104.53256656 55.08569336 97.19543457 C69.37886726 89.2547824 85.28343703 86.56247917 101.27319336 91.07043457 C114.93843024 96.05236945 124.6087684 104.68569881 131.21069336 117.50793457 C137.39957341 131.06828321 138.37907789 145.46545521 133.43334961 159.62902832 C131.9430798 163.13806619 130.21182976 166.39169341 128.16381836 169.60559082 C126.9120615 171.74934786 126.9120615 171.74934786 127.21069336 175.50793457 C127.93772461 175.71547363 128.66475586 175.9230127 129.41381836 176.13684082 C146.12931969 181.25864187 157.32285289 189.63193981 165.51538086 205.03918457 C173.95684365 222.31111766 171.65382158 241.57429414 172.21069336 260.50793457 C238.87069336 260.50793457 305.53069336 260.50793457 374.21069336 260.50793457 C374.32718981 219.42005932 374.32718981 219.42005932 374.40600586 178.33215332 C374.41383736 172.79357862 374.42191928 167.25500438 374.43041992 161.71643066 C374.43200241 160.67517503 374.43200241 160.67517503 374.43361688 159.61288393 C374.45101434 148.40587792 374.48254969 137.19895401 374.51930454 125.99199669 C374.55671013 114.49070214 374.57862898 102.98946532 374.58704734 91.48811114 C374.59226719 85.0279152 374.60455617 78.56790537 374.63361359 72.10776901 C374.66073441 66.02901509 374.66914497 59.95052422 374.66312408 53.87171555 C374.6642258 51.63921683 374.67219927 49.40670945 374.68751526 47.174263 C374.70739051 44.1282106 374.70264103 41.08315387 374.69171143 38.03707886 C374.70336279 37.1518559 374.71501416 36.26663295 374.72701859 35.35458505 C374.67451856 29.94851758 373.91581224 26.72960207 370.21069336 22.50793457 C366.78782219 20.26150174 363.87010265 20.25564093 359.83189583 20.25066566 C359.19087278 20.24715959 358.54984973 20.24365352 357.88940173 20.2400412 C355.73275141 20.23070743 353.57636995 20.23565549 351.41970825 20.24050903 C349.8613554 20.23677377 348.30300443 20.23217274 346.74465644 20.22677839 C342.45546122 20.21451775 338.1663438 20.21481245 333.87713504 20.21716714 C329.25399488 20.21757453 324.63087994 20.20654362 320.00775146 20.197052 C310.94772347 20.18042445 301.8877215 20.17494167 292.82767953 20.17382725 C285.46512156 20.17287764 278.10257219 20.16877174 270.74001694 20.16242599 C249.87645341 20.14480913 229.01291047 20.13558787 208.14933945 20.13708694 C206.46146989 20.13720681 206.46146989 20.13720681 204.73950195 20.1373291 C203.61288544 20.13741086 202.48626892 20.13749262 201.32551251 20.13757686 C183.06184754 20.13838999 164.798265 20.11924688 146.53462388 20.09105237 C127.7920767 20.06234629 109.04956976 20.0485108 90.30700004 20.05023992 C79.78025513 20.05090459 69.25359664 20.04537862 58.72687149 20.02388382 C49.76503186 20.005702 40.80331781 20.00129999 31.84146775 20.01490267 C27.26755686 20.02144739 22.69388711 20.02149546 18.11999893 20.00419617 C13.93403977 19.98852667 9.74851421 19.99126595 5.56256603 20.00876443 C4.04710917 20.01184789 2.53162044 20.00815152 1.01620115 19.99704428 C-1.04266789 19.98295157 -3.10000998 19.99348425 -5.15882683 20.01015663 C-6.30265449 20.0097219 -7.44648216 20.00928716 -8.62497127 20.00883925 C-12.57081803 20.63119858 -14.71394325 21.99044686 -17.78930664 24.50793457 Z M58.45288086 120.68371582 C52.24086242 129.61161672 51.29966045 137.73497045 52.21069336 148.50793457 C53.07202499 151.88474609 54.35902537 154.56841164 56.21069336 157.50793457 C56.62319336 158.20402832 57.03569336 158.90012207 57.46069336 159.61730957 C61.87636109 166.29098921 68.01447582 169.50104792 75.08569336 172.88293457 C85.36564612 174.93892512 94.8638189 173.67244525 103.68725586 167.88293457 C110.98551133 162.02480309 115.7830867 153.79505317 117.21069336 144.50793457 C118.021313 135.10474671 114.86407569 126.58102499 108.90209961 119.28918457 C101.92706218 111.94364862 94.38362332 108.47174485 84.27319336 108.07043457 C74.19225826 108.36504894 64.83281558 112.7867744 58.45288086 120.68371582 Z M25.72241211 206.11340332 C12.72171462 221.75940403 17.21069336 241.1727386 17.21069336 260.50793457 C61.43069336 260.50793457 105.65069336 260.50793457 151.21069336 260.50793457 C153.74766517 228.96946276 153.74766517 228.96946276 140.50366211 203.48059082 C129.03004643 193.60976302 116.00212611 193.19751558 101.48803711 193.24230957 C100.09281853 193.24095795 98.69760041 193.23901331 97.30238342 193.23651123 C94.397018 193.23358427 91.49177663 193.23777917 88.58642578 193.24719238 C84.88943851 193.25859624 81.19274145 193.25200613 77.49576473 193.24004745 C74.62075163 193.23277184 71.74580576 193.23514256 68.87079048 193.24030304 C66.85363193 193.24225811 64.8364706 193.23625733 62.81932068 193.2300415 C48.84710151 193.30078892 35.67071807 195.38176618 25.72241211 206.11340332 Z M-19.78930664 280.50793457 C-22.10055746 303.24290877 -22.10055746 303.24290877 -15.78930664 311.50793457 C-12.50759501 313.91679604 -9.40193323 313.76028585 -5.41050911 313.76520348 C-4.76948606 313.76870955 -4.12846301 313.77221563 -3.46801502 313.77582794 C-1.31136469 313.78516171 0.84501677 313.78021365 3.00167847 313.77536011 C4.56003131 313.77909538 6.11838229 313.7836964 7.67673028 313.78909075 C11.9659255 313.80135139 16.25504292 313.80105669 20.54425168 313.798702 C25.16739184 313.79829461 29.79050678 313.80932552 34.41363525 313.81881714 C43.47366325 313.83544469 52.53366522 313.84092747 61.59370719 313.84204189 C68.95626516 313.8429915 76.31881453 313.8470974 83.68136978 313.85344315 C104.54493331 313.87106001 125.40847625 313.88028127 146.27204727 313.8787822 C147.39729364 313.87870229 148.52254002 313.87862237 149.68188477 313.87854004 C150.80850128 313.87845828 151.9351178 313.87837652 153.09587421 313.87829228 C171.35953918 313.87747916 189.62312172 313.89662226 207.88676284 313.92481677 C226.62931001 313.95352285 245.37181696 313.96735834 264.11438668 313.96562922 C274.64113159 313.96496455 285.16779008 313.97049052 295.69451523 313.99198532 C304.65635486 314.01016714 313.6180689 314.01456915 322.57991897 314.00096647 C327.15382986 313.99442175 331.7274996 313.99437368 336.30138779 314.01167297 C340.48734694 314.02734247 344.67287251 314.02460319 348.85882069 314.00710471 C350.37427755 314.00402126 351.88976628 314.00771762 353.40518557 314.01882486 C355.46405461 314.03291757 357.5213967 314.02238489 359.58021355 314.00571251 C360.72404121 314.00614725 361.86786888 314.00658198 363.04635799 314.00702989 C366.99220475 313.38467056 369.13532997 312.02542228 372.21069336 309.50793457 C376.54402669 300.8412679 374.21069336 290.19756247 374.21069336 280.50793457 C244.19069336 280.50793457 114.17069336 280.50793457 -19.78930664 280.50793457 Z M155.21069336 334.50793457 C153.23069336 341.43793457 151.25069336 348.36793457 149.21069336 355.50793457 C142.47513417 373.95750973 133.26918354 392.48291698 119.21069336 406.50793457 C119.21069336 407.16793457 119.21069336 407.82793457 119.21069336 408.50793457 C157.49069336 408.50793457 195.77069336 408.50793457 235.21069336 408.50793457 C233.52525103 405.13704991 232.1025557 403.06151092 229.71069336 400.25793457 C213.95619939 380.76460235 205.23428968 358.60231984 199.21069336 334.50793457 C184.69069336 334.50793457 170.17069336 334.50793457 155.21069336 334.50793457 Z " fill="#000000" transform="translate(40.789306640625,-0.5079345703125)"/>
<path d="M0 0 C1.26606079 -0.00571014 2.53212158 -0.01142029 3.83654785 -0.01730347 C5.24757375 -0.01854889 6.65859977 -0.01967397 8.06962585 -0.02069092 C9.54947534 -0.02531813 11.02932364 -0.03034265 12.50917053 -0.03573608 C16.53611844 -0.04887218 20.56304966 -0.05530749 24.59001565 -0.05974674 C27.10505858 -0.06267575 29.62009693 -0.06678025 32.13513756 -0.07125092 C40.00161955 -0.08492954 47.86809109 -0.09459419 55.73458415 -0.09845281 C64.81979106 -0.10293347 73.9048475 -0.12048014 82.99000865 -0.1494534 C90.00918045 -0.17106205 97.0283099 -0.18115666 104.04751462 -0.18249393 C108.24123137 -0.18354262 112.43480676 -0.1894639 116.62848854 -0.20731354 C120.57407529 -0.22377999 124.5194142 -0.22595676 128.46502304 -0.21717453 C129.9126203 -0.21640336 131.36023079 -0.22075741 132.80779457 -0.23063278 C134.7852341 -0.24333097 136.76277296 -0.23569151 138.74023438 -0.22705078 C139.8465537 -0.22851734 140.95287302 -0.2299839 142.09271717 -0.2314949 C145.48818567 0.19402823 147.33169513 1.10349927 150.06059265 3.14044189 C152.37349473 6.60979502 152.32661322 7.99590684 152.36698914 12.09307861 C152.38297653 13.31800018 152.39896393 14.54292175 152.41543579 15.80496216 C152.42181258 17.14334701 152.4272053 18.48173686 152.4316864 19.82012939 C152.44065456 21.19391986 152.44977645 22.56770933 152.45904541 23.9414978 C152.4755329 26.82147595 152.48323498 29.70133789 152.48612976 32.58135986 C152.49151219 36.26598649 152.52918488 39.949516 152.57487392 43.63383293 C152.60466601 46.47179112 152.61185376 49.30948586 152.61285591 52.14758682 C152.61705441 53.5055557 152.62947423 54.86352564 152.65037346 56.22134018 C152.67732246 58.12371064 152.66934943 60.02647797 152.65995789 61.92901611 C152.66502853 63.01028778 152.67009918 64.09155945 152.67532349 65.20559692 C151.83733532 69.20631597 150.19007237 70.56484632 147.06059265 73.14044189 C144.054245 73.76685429 144.054245 73.76685429 140.64653015 73.76863098 C139.35110291 73.78128494 138.05567566 73.7939389 136.72099304 73.80697632 C135.29252224 73.7956609 133.86405542 73.78383346 132.43559265 73.77154541 C130.9257371 73.77668552 129.41588754 73.7839675 127.90605164 73.79322815 C123.81087515 73.81173908 119.71634992 73.79880596 115.62120056 73.77913785 C111.33406318 73.76274728 107.04696692 73.77156481 102.7598114 73.7766571 C95.56048688 73.78117762 88.36142221 73.76531096 81.16215515 73.73736572 C72.84082777 73.7053139 64.51996905 73.70532962 56.1986084 73.72258049 C48.19111764 73.73844869 40.18379857 73.73171017 32.17631531 73.71464348 C28.76969325 73.70777395 25.36320886 73.70880439 21.95658875 73.71618843 C17.94434676 73.72385417 13.9326376 73.71171626 9.92048645 73.68433952 C8.44872113 73.67745755 6.97690602 73.67735577 5.50514221 73.68455505 C3.49497471 73.69325437 1.48474451 73.67484988 -0.52534485 73.65510559 C-2.2121637 73.65089521 -2.2121637 73.65089521 -3.93305969 73.64659977 C-7.61469701 73.02674806 -9.28313697 71.71218386 -11.93940735 69.14044189 C-13.27543489 66.46838681 -13.0961173 64.38528536 -13.13227844 61.39312744 C-13.14834137 60.18815109 -13.1644043 58.98317474 -13.18095398 57.74168396 C-13.22530215 52.22852728 -13.26690822 46.71550207 -13.289505 41.20220947 C-13.30284164 38.29108233 -13.33068769 35.38065662 -13.37153625 32.4697876 C-13.42088546 28.95310807 -13.44562847 25.43706449 -13.45273209 21.92005348 C-13.46269581 19.93190021 -13.49693445 17.94391648 -13.53153992 15.95603943 C-13.50797293 5.9138787 -13.50797293 5.9138787 -10.5316925 2.84283447 C-6.63517172 0.28393078 -4.66162404 0.01254697 0 0 Z M7.06059265 20.14044189 C7.06059265 31.03044189 7.06059265 41.92044189 7.06059265 53.14044189 C48.31059265 53.14044189 89.56059265 53.14044189 132.06059265 53.14044189 C132.06059265 42.25044189 132.06059265 31.36044189 132.06059265 20.14044189 C90.81059265 20.14044189 49.56059265 20.14044189 7.06059265 20.14044189 Z " fill="#000000" transform="translate(243.9394073486328,156.85955810546875)"/>
<path d="M0 0 C1.26606079 -0.00571014 2.53212158 -0.01142029 3.83654785 -0.01730347 C5.24757375 -0.01854889 6.65859977 -0.01967397 8.06962585 -0.02069092 C9.54947534 -0.02531813 11.02932364 -0.03034265 12.50917053 -0.03573608 C16.53611844 -0.04887218 20.56304966 -0.05530749 24.59001565 -0.05974674 C27.10505858 -0.06267575 29.62009693 -0.06678025 32.13513756 -0.07125092 C40.00161955 -0.08492954 47.86809109 -0.09459419 55.73458415 -0.09845281 C64.81979106 -0.10293347 73.9048475 -0.12048014 82.99000865 -0.1494534 C90.00918045 -0.17106205 97.0283099 -0.18115666 104.04751462 -0.18249393 C108.24123137 -0.18354262 112.43480676 -0.1894639 116.62848854 -0.20731354 C120.57407529 -0.22377999 124.5194142 -0.22595676 128.46502304 -0.21717453 C129.9126203 -0.21640336 131.36023079 -0.22075741 132.80779457 -0.23063278 C134.7852341 -0.24333097 136.76277296 -0.23569151 138.74023438 -0.22705078 C139.8465537 -0.22851734 140.95287302 -0.2299839 142.09271717 -0.2314949 C145.48818567 0.19402823 147.33169513 1.10349927 150.06059265 3.14044189 C152.37349473 6.60979502 152.32661322 7.99590684 152.36698914 12.09307861 C152.38297653 13.31800018 152.39896393 14.54292175 152.41543579 15.80496216 C152.42181258 17.14334701 152.4272053 18.48173686 152.4316864 19.82012939 C152.44065456 21.19391986 152.44977645 22.56770933 152.45904541 23.9414978 C152.4755329 26.82147595 152.48323498 29.70133789 152.48612976 32.58135986 C152.49151219 36.26598649 152.52918488 39.949516 152.57487392 43.63383293 C152.60466601 46.47179112 152.61185376 49.30948586 152.61285591 52.14758682 C152.61705441 53.5055557 152.62947423 54.86352564 152.65037346 56.22134018 C152.67732246 58.12371064 152.66934943 60.02647797 152.65995789 61.92901611 C152.66502853 63.01028778 152.67009918 64.09155945 152.67532349 65.20559692 C151.83733532 69.20631597 150.19007237 70.56484632 147.06059265 73.14044189 C144.054245 73.76685429 144.054245 73.76685429 140.64653015 73.76863098 C139.35110291 73.78128494 138.05567566 73.7939389 136.72099304 73.80697632 C135.29252224 73.7956609 133.86405542 73.78383346 132.43559265 73.77154541 C130.9257371 73.77668552 129.41588754 73.7839675 127.90605164 73.79322815 C123.81087515 73.81173908 119.71634992 73.79880596 115.62120056 73.77913785 C111.33406318 73.76274728 107.04696692 73.77156481 102.7598114 73.7766571 C95.56048688 73.78117762 88.36142221 73.76531096 81.16215515 73.73736572 C72.84082777 73.7053139 64.51996905 73.70532962 56.1986084 73.72258049 C48.19111764 73.73844869 40.18379857 73.73171017 32.17631531 73.71464348 C28.76969325 73.70777395 25.36320886 73.70880439 21.95658875 73.71618843 C17.94434676 73.72385417 13.9326376 73.71171626 9.92048645 73.68433952 C8.44872113 73.67745755 6.97690602 73.67735577 5.50514221 73.68455505 C3.49497471 73.69325437 1.48474451 73.67484988 -0.52534485 73.65510559 C-2.2121637 73.65089521 -2.2121637 73.65089521 -3.93305969 73.64659977 C-7.61469701 73.02674806 -9.28313697 71.71218386 -11.93940735 69.14044189 C-13.27543489 66.46838681 -13.0961173 64.38528536 -13.13227844 61.39312744 C-13.14834137 60.18815109 -13.1644043 58.98317474 -13.18095398 57.74168396 C-13.22530215 52.22852728 -13.26690822 46.71550207 -13.289505 41.20220947 C-13.30284164 38.29108233 -13.33068769 35.38065662 -13.37153625 32.4697876 C-13.42088546 28.95310807 -13.44562847 25.43706449 -13.45273209 21.92005348 C-13.46269581 19.93190021 -13.49693445 17.94391648 -13.53153992 15.95603943 C-13.50797293 5.9138787 -13.50797293 5.9138787 -10.5316925 2.84283447 C-6.63517172 0.28393078 -4.66162404 0.01254697 0 0 Z M7.06059265 20.14044189 C7.06059265 31.03044189 7.06059265 41.92044189 7.06059265 53.14044189 C48.31059265 53.14044189 89.56059265 53.14044189 132.06059265 53.14044189 C132.06059265 42.25044189 132.06059265 31.36044189 132.06059265 20.14044189 C90.81059265 20.14044189 49.56059265 20.14044189 7.06059265 20.14044189 Z " fill="#000000" transform="translate(243.9394073486328,54.85955810546875)"/>
<path d="M0 0 C1.34191406 -0.04350586 1.34191406 -0.04350586 2.7109375 -0.08789062 C8.55241579 -0.143893 11.79665423 0.44096231 16.25 4.3125 C17.98899832 7.79049665 17.83979036 11.518182 17.25 15.3125 C14.5748392 18.87938107 12.59125514 20.5804165 8.25 21.3125 C5.63134239 21.45844876 3.0564062 21.54315443 0.4375 21.5625 C-0.24892578 21.583125 -0.93535156 21.60375 -1.64257812 21.625 C-6.73114551 21.66351328 -10.21974217 20.65236667 -14.75 18.3125 C-17.19675369 15.44022392 -17.22068772 11.99214718 -17.14453125 8.28125 C-16.47206358 4.92556974 -14.34717314 3.35313604 -11.75 1.3125 C-8.1450387 -0.48998065 -3.97001652 0.0421744 0 0 Z " fill="#000000" transform="translate(217.75,285.6875)"/>
<path d="M0 0 C3.37882179 2.3933321 4.67073608 4.03278722 6 7.9375 C6 11.81045073 5.14268559 13.78597162 3 17 C0.69415934 19.04231601 -0.86198798 19.94559305 -3.9609375 20.09375 C-7.34895519 19.84185277 -9.55645229 19.28432546 -12.4375 17.4375 C-14.61580694 14.03934118 -15.34844668 11.03423823 -15 7 C-11.33032219 0.04026623 -7.55042336 -1.14756003 0 0 Z " fill="#000000" transform="translate(304,184)"/>
<path d="M0 0 C3 1.4375 3 1.4375 5 4 C6.06885964 7.85780467 6.64409895 11.38975263 5.1328125 15.16796875 C3.43152262 17.91936514 2.01085126 18.78284736 -1 20 C-5.5799013 20.28624383 -8.90799821 19.85229408 -12.5625 17 C-14.53516889 12.8831258 -14.90731802 9.4798827 -14 5 C-10.45718707 -0.59993012 -6.15178032 -1.15903108 0 0 Z " fill="#000000" transform="translate(275,82)"/>
<path d="M0 0 C3.06626454 2.23581789 4.5346273 3.89473984 6 7.375 C6 11.20702293 4.84995443 13.67008202 3 17 C0.30471694 19.25821013 -1.48357833 19.91209844 -4.9375 20.5 C-9.24311494 19.79704246 -11.0761377 18.19584949 -14 15 C-15.28998174 10.82652968 -15.29348391 8.77773236 -13.75 4.6875 C-10.25776176 -0.67558016 -5.92284184 -1.01831316 0 0 Z " fill="#000000" transform="translate(304,82)"/>
<path d="M0 0 C3.06818718 1.53409359 4.52410348 2.57528481 5.625 5.87109375 C6.25655114 9.35120365 6.20134191 11.49664523 4.875 14.8125 C2.65883242 17.39802885 1.1806324 18.72774704 -2 20 C-6.29157904 20.29066472 -9.12024731 19.70380215 -12.5 17 C-14.55514129 12.88971742 -14.91259488 9.50593723 -14 5 C-10.46188977 -0.59249681 -6.14758309 -1.16937722 0 0 Z " fill="#000000" transform="translate(275,184)"/>
</svg>
