<?xml version="1.0" encoding="UTF-8"?>
<!DOCTYPE svg PUBLIC "-//W3C//DTD SVG 1.1//EN" "http://www.w3.org/Graphics/SVG/1.1/DTD/svg11.dtd">
<svg xmlns="http://www.w3.org/2000/svg" version="1.1" width="512px" height="512px" style="shape-rendering:geometricPrecision; text-rendering:geometricPrecision; image-rendering:optimizeQuality; fill-rule:evenodd; clip-rule:evenodd" xmlns:xlink="http://www.w3.org/1999/xlink">
<g><path style="opacity:0.989" fill="#000000" d="M 77.5,-0.5 C 196.167,-0.5 314.833,-0.5 433.5,-0.5C 476.5,8.5 502.5,34.5 511.5,77.5C 511.5,196.167 511.5,314.833 511.5,433.5C 502.5,476.5 476.5,502.5 433.5,511.5C 314.833,511.5 196.167,511.5 77.5,511.5C 34.5,502.5 8.5,476.5 -0.5,433.5C -0.5,314.833 -0.5,196.167 -0.5,77.5C 8.5,34.5 34.5,8.5 77.5,-0.5 Z M 90.5,29.5 C 200.501,29.3333 310.501,29.5 420.5,30C 447.303,31.8076 466.136,44.9743 477,69.5C 479.618,76.5927 480.952,83.9261 481,91.5C 481.667,200.833 481.667,310.167 481,419.5C 479.664,446.829 466.498,465.996 441.5,477C 434.726,479.488 427.726,480.821 420.5,481C 310.5,481.667 200.5,481.667 90.5,481C 63.6972,479.192 44.8639,466.026 34,441.5C 31.3816,434.407 30.0482,427.074 30,419.5C 29.0224,306.483 29.3557,193.483 31,80.5C 39.067,49.5892 58.9003,32.5892 90.5,29.5 Z M 154.5,110.5 C 171.153,110.315 177.653,118.315 174,134.5C 166.376,144.829 157.376,146.162 147,138.5C 139.631,126.449 142.131,117.116 154.5,110.5 Z M 350.5,238.5 C 361.075,239.41 367.075,245.076 368.5,255.5C 367.278,265.224 361.778,270.89 352,272.5C 337.302,269.1 332.635,260.433 338,246.5C 341.378,242.406 345.545,239.739 350.5,238.5 Z M 219.5,367.5 C 237.057,368.282 242.89,376.948 237,393.5C 227.365,403.049 218.032,402.715 209,392.5C 204.255,380.66 207.755,372.327 219.5,367.5 Z"/></g>
<g><path style="opacity:0.965" fill="#000000" d="M 150.5,79.5 C 175.974,77.3973 193.974,87.8973 204.5,111C 281.833,111.333 359.167,111.667 436.5,112C 446.635,116.375 449.802,123.875 446,134.5C 443.876,138.313 440.709,140.813 436.5,142C 359.167,142.333 281.833,142.667 204.5,143C 191.135,170.346 169.801,179.679 140.5,171C 127.424,165.428 118.757,155.928 114.5,142.5C 101.163,142.667 87.8292,142.5 74.5,142C 63.5615,136.858 60.7282,128.691 66,117.5C 68.4411,115.031 71.2744,113.198 74.5,112C 87.8292,111.5 101.163,111.333 114.5,111.5C 120.54,94.1261 132.54,83.4594 150.5,79.5 Z M 154.5,110.5 C 142.131,117.116 139.631,126.449 147,138.5C 157.376,146.162 166.376,144.829 174,134.5C 177.653,118.315 171.153,110.315 154.5,110.5 Z"/></g>
<g><path style="opacity:0.983" fill="#000000" d="M 348.5,207.5 C 371.918,207.766 388.252,218.6 397.5,240C 410.833,240.333 424.167,240.667 437.5,241C 445.871,244.909 449.037,251.409 447,260.5C 445.167,265 442,268.167 437.5,270C 424.167,270.333 410.833,270.667 397.5,271C 386.663,295.42 367.996,305.753 341.5,302C 324.273,297.895 312.607,287.562 306.5,271C 228.833,270.667 151.167,270.333 73.5,270C 63.2773,264.705 60.7773,256.872 66,246.5C 67.9605,243.865 70.4605,242.031 73.5,241C 151.167,240.667 228.833,240.333 306.5,240C 314.269,221.059 328.269,210.226 348.5,207.5 Z M 350.5,238.5 C 345.545,239.739 341.378,242.406 338,246.5C 332.635,260.433 337.302,269.1 352,272.5C 361.778,270.89 367.278,265.224 368.5,255.5C 367.075,245.076 361.075,239.41 350.5,238.5 Z"/></g>
<g><path style="opacity:0.964" fill="#000000" d="M 215.5,336.5 C 240.581,334.701 258.247,345.201 268.5,368C 324.5,368.333 380.5,368.667 436.5,369C 447.439,374.142 450.272,382.309 445,393.5C 442.559,395.969 439.726,397.802 436.5,399C 380.5,399.333 324.5,399.667 268.5,400C 257.202,425.317 237.869,435.317 210.5,430C 194.864,425.529 184.197,415.696 178.5,400.5C 143.838,399.667 109.171,399.167 74.5,399C 67.016,396.843 63.3494,391.843 63.5,384C 63.3494,376.157 67.016,371.157 74.5,369C 109.171,368.833 143.838,368.333 178.5,367.5C 185.715,350.944 198.048,340.61 215.5,336.5 Z M 219.5,367.5 C 207.755,372.327 204.255,380.66 209,392.5C 218.032,402.715 227.365,403.049 237,393.5C 242.89,376.948 237.057,368.282 219.5,367.5 Z"/></g>
</svg>
