<?xml version="1.0" encoding="UTF-8"?>
<!DOCTYPE svg PUBLIC "-//W3C//DTD SVG 1.1//EN" "http://www.w3.org/Graphics/SVG/1.1/DTD/svg11.dtd">
<svg xmlns="http://www.w3.org/2000/svg" version="1.1" width="512px" height="512px" style="shape-rendering:geometricPrecision; text-rendering:geometricPrecision; image-rendering:optimizeQuality; fill-rule:evenodd; clip-rule:evenodd" xmlns:xlink="http://www.w3.org/1999/xlink">
<g><path style="opacity:0.963" fill="#000000" d="M 366.5,20.5 C 381.283,18.6952 394.617,22.1952 406.5,31C 431,55.5 455.5,80 480,104.5C 494,125.167 494,145.833 480,166.5C 455.5,191 431,215.5 406.5,240C 385.833,254 365.167,254 344.5,240C 320,215.5 295.5,191 271,166.5C 257,145.833 257,125.167 271,104.5C 295.5,80 320,55.5 344.5,31C 351.266,26.1151 358.6,22.6151 366.5,20.5 Z M 371.5,53.5 C 376.08,53.1134 380.414,53.9468 384.5,56C 408,79.5 431.5,103 455,126.5C 458.333,132.5 458.333,138.5 455,144.5C 431.5,168 408,191.5 384.5,215C 378.5,218.333 372.5,218.333 366.5,215C 343,191.5 319.5,168 296,144.5C 292.667,138.5 292.667,132.5 296,126.5C 319.5,103 343,79.5 366.5,56C 368.315,55.2432 369.981,54.4098 371.5,53.5 Z"/></g>
<g><path style="opacity:0.988" fill="#000000" d="M 69.5,31.5 C 113.501,31.3333 157.501,31.5 201.5,32C 221.333,37.1667 233.833,49.6667 239,69.5C 239.667,113.5 239.667,157.5 239,201.5C 233.833,221.333 221.333,233.833 201.5,239C 157.5,239.667 113.5,239.667 69.5,239C 49.6667,233.833 37.1667,221.333 32,201.5C 31.3333,157.5 31.3333,113.5 32,69.5C 37.3488,49.6518 49.8488,36.9852 69.5,31.5 Z M 79.5,63.5 C 116.835,63.3333 154.168,63.5 191.5,64C 200.667,65.1667 205.833,70.3333 207,79.5C 207.667,116.833 207.667,154.167 207,191.5C 205.833,200.667 200.667,205.833 191.5,207C 154.167,207.667 116.833,207.667 79.5,207C 70.3333,205.833 65.1667,200.667 64,191.5C 63.3333,154.167 63.3333,116.833 64,79.5C 65.3459,70.3224 70.5125,64.9891 79.5,63.5 Z"/></g>
<g><path style="opacity:0.988" fill="#000000" d="M 69.5,271.5 C 113.501,271.333 157.501,271.5 201.5,272C 221.333,277.167 233.833,289.667 239,309.5C 239.667,353.5 239.667,397.5 239,441.5C 233.833,461.333 221.333,473.833 201.5,479C 157.5,479.667 113.5,479.667 69.5,479C 49.6667,473.833 37.1667,461.333 32,441.5C 31.3333,397.5 31.3333,353.5 32,309.5C 37.3488,289.652 49.8488,276.985 69.5,271.5 Z M 79.5,303.5 C 116.835,303.333 154.168,303.5 191.5,304C 200.667,305.167 205.833,310.333 207,319.5C 207.667,356.833 207.667,394.167 207,431.5C 205.833,440.667 200.667,445.833 191.5,447C 154.167,447.667 116.833,447.667 79.5,447C 70.3333,445.833 65.1667,440.667 64,431.5C 63.3333,394.167 63.3333,356.833 64,319.5C 65.3459,310.322 70.5125,304.989 79.5,303.5 Z"/></g>
<g><path style="opacity:0.988" fill="#000000" d="M 309.5,271.5 C 353.501,271.333 397.501,271.5 441.5,272C 461.333,277.167 473.833,289.667 479,309.5C 479.667,353.5 479.667,397.5 479,441.5C 473.833,461.333 461.333,473.833 441.5,479C 397.5,479.667 353.5,479.667 309.5,479C 289.667,473.833 277.167,461.333 272,441.5C 271.333,397.5 271.333,353.5 272,309.5C 277.349,289.652 289.849,276.985 309.5,271.5 Z M 319.5,303.5 C 356.835,303.333 394.168,303.5 431.5,304C 440.667,305.167 445.833,310.333 447,319.5C 447.667,356.833 447.667,394.167 447,431.5C 445.833,440.667 440.667,445.833 431.5,447C 394.167,447.667 356.833,447.667 319.5,447C 310.333,445.833 305.167,440.667 304,431.5C 303.333,394.167 303.333,356.833 304,319.5C 305.346,310.322 310.513,304.989 319.5,303.5 Z"/></g>
</svg>
