<?xml version="1.0" encoding="UTF-8"?>
<!DOCTYPE svg PUBLIC "-//W3C//DTD SVG 1.1//EN" "http://www.w3.org/Graphics/SVG/1.1/DTD/svg11.dtd">
<svg xmlns="http://www.w3.org/2000/svg" version="1.1" width="512px" height="416px" style="shape-rendering:geometricPrecision; text-rendering:geometricPrecision; image-rendering:optimizeQuality; fill-rule:evenodd; clip-rule:evenodd" xmlns:xlink="http://www.w3.org/1999/xlink">
<g><path style="opacity:0.977" fill="#000000" d="M 52.5,-0.5 C 87.8333,-0.5 123.167,-0.5 158.5,-0.5C 162.043,1.20165 165.21,3.53498 168,6.5C 181.133,21.3011 194.633,35.8011 208.5,50C 293.536,50.0134 378.536,50.68 463.5,52C 489.339,59.668 505.339,76.5013 511.5,102.5C 511.5,189.5 511.5,276.5 511.5,363.5C 504.311,392.022 486.311,409.355 457.5,415.5C 322.833,415.5 188.167,415.5 53.5,415.5C 24.7158,409.383 6.71577,392.049 -0.5,363.5C -0.5,259.167 -0.5,154.833 -0.5,50.5C 6.36368,22.3035 24.0303,5.30346 52.5,-0.5 Z M 55.5,32.5 C 85.8352,32.3334 116.168,32.5 146.5,33C 161.833,49 177.167,65 192.5,81C 194.392,81.9734 196.392,82.6401 198.5,83C 283.833,83.3333 369.167,83.6667 454.5,84C 469.107,87.9414 477.273,97.4414 479,112.5C 479.667,192.833 479.667,273.167 479,353.5C 477.162,369.003 468.662,378.503 453.5,382C 321.5,382.667 189.5,382.667 57.5,382C 42.3384,378.503 33.8384,369.003 32,353.5C 31.3333,255.833 31.3333,158.167 32,60.5C 33.578,45.7666 41.4114,36.4333 55.5,32.5 Z M 357.5,193.5 C 368.505,193.333 379.505,193.5 390.5,194C 396.556,197.116 397.889,201.616 394.5,207.5C 392.705,209.703 390.371,210.869 387.5,211C 377.506,211.5 367.506,211.666 357.5,211.5C 357.5,205.5 357.5,199.5 357.5,193.5 Z"/></g>
<g><path style="opacity:0.97" fill="#000000" d="M 92.5,160.5 C 119.835,160.333 147.169,160.5 174.5,161C 183.351,164.522 187.184,171.022 186,180.5C 184.59,185.84 181.423,189.673 176.5,192C 155.9,193.465 135.234,193.965 114.5,193.5C 114.5,199.5 114.5,205.5 114.5,211.5C 127.574,211.057 140.574,211.557 153.5,213C 164.167,222.667 164.167,232.333 153.5,242C 140.574,243.443 127.574,243.943 114.5,243.5C 114.667,256.171 114.5,268.838 114,281.5C 110.79,292.195 103.624,296.362 92.5,294C 87.6667,291.833 84.1667,288.333 82,283.5C 81.3333,246.167 81.3333,208.833 82,171.5C 84.3566,166.645 87.8566,162.979 92.5,160.5 Z"/></g>
<g><path style="opacity:0.978" fill="#000000" d="M 214.5,160.5 C 242.897,160.025 271.23,160.525 299.5,162C 307.056,166.848 309.556,173.682 307,182.5C 304.635,188.202 300.469,191.702 294.5,193C 286.841,193.5 279.174,193.666 271.5,193.5C 271.667,223.835 271.5,254.168 271,284.5C 264.431,295.158 255.598,297.324 244.5,291C 242.877,288.92 241.377,286.754 240,284.5C 239.5,254.168 239.333,223.835 239.5,193.5C 231.826,193.666 224.159,193.5 216.5,193C 205.484,189.48 201.318,181.98 204,170.5C 206.106,165.557 209.606,162.224 214.5,160.5 Z"/></g>
<g><path style="opacity:0.97" fill="#000000" d="M 336.5,160.5 C 357.554,160.046 378.554,160.546 399.5,162C 423.455,171.071 432.955,188.238 428,213.5C 423.427,229.072 413.26,238.906 397.5,243C 384.171,243.5 370.837,243.667 357.5,243.5C 357.667,256.837 357.5,270.171 357,283.5C 351.361,294.691 342.861,297.525 331.5,292C 329.291,290.127 327.458,287.96 326,285.5C 324.358,248.213 324.025,210.88 325,173.5C 326.58,167.091 330.414,162.758 336.5,160.5 Z M 357.5,193.5 C 357.5,199.5 357.5,205.5 357.5,211.5C 367.506,211.666 377.506,211.5 387.5,211C 390.371,210.869 392.705,209.703 394.5,207.5C 397.889,201.616 396.556,197.116 390.5,194C 379.505,193.5 368.505,193.333 357.5,193.5 Z"/></g>
</svg>
