<?xml version="1.0" encoding="UTF-8"?>
<!DOCTYPE svg PUBLIC "-//W3C//DTD SVG 1.1//EN" "http://www.w3.org/Graphics/SVG/1.1/DTD/svg11.dtd">
<svg xmlns="http://www.w3.org/2000/svg" version="1.1" width="428px" height="300px" style="shape-rendering:geometricPrecision; text-rendering:geometricPrecision; image-rendering:optimizeQuality; fill-rule:evenodd; clip-rule:evenodd" xmlns:xlink="http://www.w3.org/1999/xlink">
<g><path style="opacity:0.969" fill="#000000" d="M 66.5,-0.5 C 69.1667,-0.5 71.8333,-0.5 74.5,-0.5C 87.8358,3.48042 93.6692,12.4804 92,26.5C 91.2411,29.7846 89.9078,32.7846 88,35.5C 51.3811,76.7098 37.3811,124.71 46,179.5C 52.0644,211.629 66.0644,239.629 88,263.5C 94.8412,274.924 93.6746,285.424 84.5,295C 81.1847,296.83 77.8514,298.33 74.5,299.5C 71.8333,299.5 69.1667,299.5 66.5,299.5C 63.976,298.26 61.3093,297.093 58.5,296C 22.6578,258.322 2.99117,213.488 -0.5,161.5C -0.5,153.5 -0.5,145.5 -0.5,137.5C 2.99117,85.5117 22.6578,40.6784 58.5,3C 61.1579,1.52203 63.8245,0.355367 66.5,-0.5 Z"/></g>
<g><path style="opacity:0.969" fill="#000000" d="M 352.5,-0.5 C 355.167,-0.5 357.833,-0.5 360.5,-0.5C 363.175,0.355367 365.842,1.52203 368.5,3C 403.953,40.8431 423.62,85.6764 427.5,137.5C 427.5,145.167 427.5,152.833 427.5,160.5C 423.829,212.695 404.162,257.861 368.5,296C 365.691,297.093 363.024,298.26 360.5,299.5C 357.833,299.5 355.167,299.5 352.5,299.5C 339.164,295.52 333.331,286.52 335,272.5C 337.71,265.112 342.044,258.778 348,253.5C 384.463,203.599 392.796,149.266 373,90.5C 365.296,69.823 353.963,51.4896 339,35.5C 332.159,24.076 333.325,13.576 342.5,4C 345.815,2.1702 349.149,0.670196 352.5,-0.5 Z"/></g>
<g><path style="opacity:0.969" fill="#000000" d="M 136.5,51.5 C 150.793,52.2928 158.793,59.7928 160.5,74C 158.954,83.2255 154.454,90.7255 147,96.5C 124.412,128.404 122.746,161.404 142,195.5C 146.289,201.458 150.956,207.124 156,212.5C 162.925,226.004 160.091,236.837 147.5,245C 138.39,247.972 130.056,246.639 122.5,241C 85.4948,200.311 75.9948,153.811 94,101.5C 101.276,83.4237 112.11,67.9237 126.5,55C 129.85,53.5137 133.184,52.347 136.5,51.5 Z"/></g>
<g><path style="opacity:0.969" fill="#000000" d="M 284.5,52.5 C 291.943,51.5934 298.61,53.4267 304.5,58C 341.505,98.6888 351.005,145.189 333,197.5C 325.945,214.213 316.112,229.046 303.5,242C 287.364,251.173 275.53,247.34 268,230.5C 266.791,224.114 267.791,218.114 271,212.5C 301.132,180.451 306.132,144.784 286,105.5C 282.146,99.7999 277.812,94.4666 273,89.5C 265.074,77.9374 265.907,67.104 275.5,57C 278.324,54.9212 281.324,53.4212 284.5,52.5 Z"/></g>
<g><path style="opacity:0.967" fill="#000000" d="M 205.5,117.5 C 233.978,115.811 247.145,129.144 245,157.5C 238.645,176.438 225.478,184.272 205.5,181C 186.556,174.632 178.723,161.466 182,141.5C 185.349,128.985 193.182,120.985 205.5,117.5 Z"/></g>
</svg>
