<?xml version="1.0" encoding="UTF-8"?>
<!DOCTYPE svg PUBLIC "-//W3C//DTD SVG 1.1//EN" "http://www.w3.org/Graphics/SVG/1.1/DTD/svg11.dtd">
<svg xmlns="http://www.w3.org/2000/svg" version="1.1" width="512px" height="512px" style="shape-rendering:geometricPrecision; text-rendering:geometricPrecision; image-rendering:optimizeQuality; fill-rule:evenodd; clip-rule:evenodd" xmlns:xlink="http://www.w3.org/1999/xlink">
<g><path style="opacity:0.977" fill="#000000" d="M 86.5,20.5 C 196.834,20.3333 307.167,20.5 417.5,21C 457.058,28.2267 481.225,51.3934 490,90.5C 490.667,140.5 490.667,190.5 490,240.5C 484.111,251.244 475.278,254.744 463.5,251C 458.667,248.833 455.167,245.333 453,240.5C 452.5,218.836 452.333,197.169 452.5,175.5C 319.5,175.5 186.5,175.5 53.5,175.5C 53.3333,256.501 53.5,337.501 54,418.5C 57.9715,439.137 70.1382,451.971 90.5,457C 113.167,457.333 135.833,457.667 158.5,458C 171.911,462.767 175.411,471.6 169,484.5C 166.592,486.956 163.759,488.789 160.5,490C 136.167,490.667 111.833,490.667 87.5,490C 60.2724,485.634 40.4391,471.134 28,446.5C 25.6011,440.637 23.6011,434.637 22,428.5C 20.3475,315.526 20.0141,202.526 21,89.5C 25.8304,58.9899 42.3304,37.4899 70.5,25C 75.8742,23.1604 81.2075,21.6604 86.5,20.5 Z M 90.5,53.5 C 199.869,53.0104 309.202,53.5104 418.5,55C 437.283,62.1229 448.449,75.6229 452,95.5C 452.5,111.497 452.667,127.497 452.5,143.5C 319.5,143.5 186.5,143.5 53.5,143.5C 53.3334,126.497 53.5001,109.497 54,92.5C 58.5013,72.0579 70.668,59.0579 90.5,53.5 Z"/></g>
<g><path style="opacity:0.947" fill="#000000" d="M 269.5,84.5 C 289.107,81.613 298.273,89.9463 297,109.5C 291.625,121.6 282.458,125.766 269.5,122C 256.917,114.641 254.084,104.475 261,91.5C 263.441,88.5464 266.275,86.2131 269.5,84.5 Z"/></g>
<g><path style="opacity:0.943" fill="#000000" d="M 329.5,84.5 C 349.877,81.7114 358.71,90.378 356,110.5C 352.557,119.056 346.223,123.056 337,122.5C 324.311,122.649 317.478,116.316 316.5,103.5C 317.171,94.4452 321.504,88.1119 329.5,84.5 Z"/></g>
<g><path style="opacity:0.94" fill="#000000" d="M 385.5,84.5 C 406.427,81.9254 415.261,90.9254 412,111.5C 408.119,119.377 401.786,123.044 393,122.5C 380.319,122.657 373.486,116.324 372.5,103.5C 373.426,94.6145 377.759,88.2811 385.5,84.5 Z"/></g>
<g><path style="opacity:0.964" fill="#000000" d="M 310.5,250.5 C 382.883,248.27 438.716,277.27 478,337.5C 482.802,345.437 486.802,353.77 490,362.5C 474.77,421.406 438.27,460.906 380.5,481C 345.754,491.055 310.754,492.055 275.5,484C 232.286,470.815 199.453,444.649 177,405.5C 170.253,393.337 164.586,380.67 160,367.5C 159.348,364.406 159.682,361.406 161,358.5C 191.225,295.461 241.059,259.461 310.5,250.5 Z M 313.5,284.5 C 379.454,282.797 427.121,311.297 456.5,370C 432.55,419.608 393.216,447.941 338.5,455C 285.193,457.425 242.359,437.592 210,395.5C 204.534,387.406 199.701,378.906 195.5,370C 219.608,320.38 258.941,291.88 313.5,284.5 Z M 320.5,339.5 C 339.059,338.357 350.892,346.691 356,364.5C 357.641,383.04 349.474,394.874 331.5,400C 312.922,401.626 301.088,393.46 296,375.5C 294.534,356.82 302.701,344.82 320.5,339.5 Z"/></g>
<g><path style="opacity:0.964" fill="#000000" d="M 316.5,305.5 C 348.835,303.242 372.001,316.575 386,345.5C 396.531,378.237 388.031,404.737 360.5,425C 334.08,438.995 308.747,437.329 284.5,420C 262.422,399.187 256.255,374.354 266,345.5C 276.188,323.67 293.021,310.336 316.5,305.5 Z M 320.5,339.5 C 302.701,344.82 294.534,356.82 296,375.5C 301.088,393.46 312.922,401.626 331.5,400C 349.474,394.874 357.641,383.04 356,364.5C 350.892,346.691 339.059,338.357 320.5,339.5 Z"/></g>
</svg>
